<?xml version="1.0" encoding="UTF-8" standalone="no"?>
<svg
   xmlns:dc="http://purl.org/dc/elements/1.1/"
   xmlns:cc="http://creativecommons.org/ns#"
   xmlns:rdf="http://www.w3.org/1999/02/22-rdf-syntax-ns#"
   xmlns:svg="http://www.w3.org/2000/svg"
   xmlns="http://www.w3.org/2000/svg"
   xmlns:xlink="http://www.w3.org/1999/xlink"
   xmlns:sodipodi="http://sodipodi.sourceforge.net/DTD/sodipodi-0.dtd"
   xmlns:inkscape="http://www.inkscape.org/namespaces/inkscape"
   width="322.37463"
   height="851.75269"
   viewBox="0 0 322.37463 851.75269"
   version="1.1"
   id="svg1651"
   sodipodi:docname="Arthur.svg"
   inkscape:version="1.0.2-2 (e86c870879, 2021-01-15)">
  <metadata
     id="metadata1655">
    <rdf:RDF>
      <cc:Work
         rdf:about="">
        <dc:format>image/svg+xml</dc:format>
        <dc:type
           rdf:resource="http://purl.org/dc/dcmitype/StillImage" />
        <dc:title>arthur</dc:title>
      </cc:Work>
    </rdf:RDF>
  </metadata>
  <sodipodi:namedview
     pagecolor="#ffffff"
     bordercolor="#666666"
     borderopacity="1"
     objecttolerance="10"
     gridtolerance="10"
     guidetolerance="10"
     inkscape:pageopacity="0"
     inkscape:pageshadow="2"
     inkscape:window-width="1920"
     inkscape:window-height="1051"
     id="namedview1653"
     showgrid="false"
     inkscape:zoom="5.4553014"
     inkscape:cx="135.98973"
     inkscape:cy="70.073745"
     inkscape:window-x="-9"
     inkscape:window-y="-9"
     inkscape:window-maximized="1"
     inkscape:current-layer="g3772"
     inkscape:document-rotation="0"
     inkscape:object-nodes="false" />
  <!-- Generator: Sketch 53.2 (72643) - https://sketchapp.com -->
  <title
     id="title1245">arthur</title>
  <desc
     id="desc1247">Created with Sketch.</desc>
  <defs
     id="defs1265">
    <path
       d="M 70.340091,114.774 69.486797,85.47188 c 0,0 35.797993,2.835171 43.455213,-1.121753 0,0 9.35932,-47.964095 -1.80349,-74.5256397 L 110.91241,8.7901899 35.370269,0 31.938477,44.246157 C 29.393846,36.781189 7.5892966,27.18712 2.0998582,37.878133 -9.7969158,61.044076 32.740399,76.642424 32.740399,76.642424 L 28.420988,115.1265"
       id="path-1" />
    <path
       d="m 360.76232,114.95821 6.96744,22.45955 c 0,0 54.40764,-22.32685 82.3947,-13.85526 l -94.31012,54.63682 -24.55243,-61.68268 z M 76.757594,28.761104 44.966103,55.283338 c 0,0 3.650093,18.805913 4.732493,36.432528 1.565472,25.514544 -1.211686,48.352214 -1.211686,48.352214 L 4.0088889e-4,45.380028 67.503074,0 Z"
       id="path-3" />
    <path
       d="m 302.7558,116.43932 28.16445,-7.61655 8.74739,28.64138 -24.14052,10.06893 z M 38.996667,0 40.677394,35.570503 16.90368,55.33023 0.11846267,26.653932 Z"
       id="path-5" />
    <path
       d="M 162.2067,109.138 C 154.43146,83.51532 148.93951,64.433814 147.13451,56.101064 139.10971,19.052947 139.12675,1.3465149 139.12675,5.9862845e-4 h 27.82136 L 271.76054,1.9954282e-4 C 271.19005,9.9100869 272.84178,36.190139 269.10867,72.577523 l 81.38322,363.037677 8.21303,-1.43218 7.14484,28.21735 -89.01737,17.7663 -10.84505,-29.81569 5.31794,-0.92733 c -11.88111,-35.76274 -37.82872,-115.15177 -63.00445,-193.68758 -3.14165,5.2319 -6.43874,10.48204 -9.89895,15.74413 C 151.48907,342.82042 104.6655,384.097 79.015079,403.48868 l 3.791294,5.42245 L 57.07532,425.28062 0.48885089,344.77307 25.454206,326.88406 l 4.209838,6.02106 c 30.451504,-28.01057 91.281866,-93.87423 127.143616,-199.69013 2.40353,-7.0882 4.13793,-15.24914 5.39904,-24.07699 z"
       id="path-7" />
    <path
       d="m 285.21654,65.731378 c -11.03642,21.670263 -49.77846,92.806122 -77.39794,81.460152 -20.679,-8.49588 -45.435,-78.929339 -45.435,-78.929339 l 40.241,-23.94871 18.082,48.40244 36.92133,-40.110506 c -1.2537,-7.948083 -2.25792,-18.337863 0.24137,-22.000557 4.255,-6.23422 25.783,-25.4419005 25.783,-25.4419005 l 3.91965,32.5440035 0.68466,-2.743481 c -6.9e-4,-0.152784 0.0361,-0.318149 0.11369,-0.496905 0.007,-0.01716 0.0152,-0.03438 0.0232,-0.05164 l 1.58483,-6.350521 c -0.66531,-0.335764 -0.93755,-0.814281 -0.64994,-1.476654 0.23345,-0.537632 0.74257,-1.126883 1.45425,-1.74623 L 296.1936,3.1595768 c 0,0 1.77568,0.7898303 4.37903,1.9732459 4.18735,-0.8634982 19.35093,9.4449213 19.58102,9.6015533 l 0.003,0.0019 c 3.088,1.994234 -4.256,34.954777 -10.221,41.077654 -4.2437,4.355996 -17.4486,8.111913 -24.71906,9.917446 z M 38.68591,212.70645 l 2.46499,4.67916 c 0,0 2.231,3.82344 4.567,10.49707 2.335,6.67263 1.365,10.75554 6.417,21.23671 5.735,11.8978 -4.523,6.99175 -8.201,1.79839 -2.871,-4.05409 -2.545,-9.53276 -6.267,-11.98828 -1.247,1.99026 -4.097,4.83548 -5.687,22.0022 -0.285,3.07883 1.111,13.06591 1.111,13.06591 0.03,2.99235 0.414,9.23253 -2.993,10.18491 -0.844,0.23661 -1.943,-0.69688 -1.943,-0.69688 0,0 0.33,3.90496 -3.151,4.68237 -1.369,0.3052 -4.088,-8.12606 -4.088,-8.12606 0,0 -0.414,4.28174 -3.014,4.75793 -0.735,0.13421 -9.413,-24.29367 -9.413,-24.29367 l 0.522,5.51745 1.152,5.65066 c 0,0 -0.093,3.04205 -2.536,3.57988 -0.97,0.21374 -2.832,-4.85933 -4.577,-10.82812 -2.714,-9.28721 -2.659,-16.26603 -1.86,-23.20609 0.964,-8.38652 0.535,-11.2039 4.268,-21.48823 0.4464173,-1.22995 1.0456033,-2.64227 1.7147859,-4.09447 C 5.1244724,197.95659 -0.64728169,146.20281 0.0601,130.3145 0.9171,111.04319 21.3351,68.262588 21.3351,68.262588 l 41.453,23.174279 -22.848,41.630393 z M 137.858,21.006187 c -24.01,-1.411671 -34.14,-16.3336363 -36.45,-20.36982394 15.234,-1.05179472 16.826,-0.89770381 37.118,1.20389734 8.23,0.8529678 14.002,2.6036393 19.592,4.1346071 1.21,4.1057775 2.93,16.3833435 -20.26,15.0313195 z"
       id="path-9" />
    <path
       d="m 189.24474,43.713803 0.14356,-0.02794 16.354,37.597188 -23.34163,13.604452 -4.87297,82.087397 h -132.99 l -2.23,-80.952407 -42.05,-31.444487 c 0,0 19.83,-39.765396 53.76,-55.5920237 10.97,-5.1197947 21.0303,-7.5357413 30.3903,-8.46028677 0.767405,-0.0757714 0.16177,-0.0543878 0.254964,0.30758117 0.05289,0.2054382 0.238098,0.5115996 0.453003,0.8589461 0.214905,0.3473465 0.214905,0.2348207 1.268432,1.7886419 1.053528,1.5538212 2.615096,3.1027027 4.969849,5.5051176 1.95312,1.9926537 4.651062,3.9436427 7.298096,5.4229027 3.013666,1.684146 5.971516,2.80876 7.869386,3.607137 1.71285,0.720544 3.15698,1.0985 4.55286,1.43004 3.94289,0.936494 7.01258,1.226545 13.27453,1.552878 0.75995,0.0396 5.1602,-0.286134 5.93408,-0.439937 1.10383,-0.219379 2.09278,-0.417581 3.34095,-0.75798 1.24816,-0.340399 4.35002,-1.787907 6.40344,-4.33769 0.87097,-1.08151 1.69834,-4.638517 1.4436,-7.2590533 -0.25474,-2.6205367 -1.39753,-2.6260993 -0.35319,-2.3400798 18.37,5.0004991 35.7307,15.3098761 45.8797,33.5920171 0.81813,1.472738 1.56571,2.891271 2.24704,4.257583 z"
       id="path-11" />
    <polygon
       id="path-13"
       points="0.8872,72.596502 0.8872,0.2336217 45.1692,0.2336217 45.1692,72.596502 " />
    <polygon
       id="path-15"
       points="0.9044,72.596502 0.9044,0.2336217 20.0754,0.2336217 20.0754,72.596502 " />
    <path
       d="m 215.391,107.69 c 0,7.61 -0.79,15.04 -2.301,22.21 -10.229,48.82 -53.529,65.48 -105.399,65.48 C 48.22,195.38 0,167.17 0,107.69 0,48.21 48.22,0 107.691,0 c 40.889,0 76.46,22.78 94.7,56.35 8.289,15.26 13,32.75 13,51.34"
       id="path-17" />
    <path
       d="M 45.835449,0.59451789 C 58.428663,11.427604 77.067654,21.501023 98.948225,28.349992 97.554877,43.174811 92.929673,68.726058 78.9772,78.0071 c -6.591,4.383 -18.594,4.923 -28.819,4.333 l -2.345,29.043 -30.393,-11.903 c 0,0 7.586,-35.298 3.524,-41.785 -5.455,-8.739 -20.05,-11.555 -20.067,-23.632 -0.006,-3.577 2.085,-9.77 9.806,-9.782 10.364,-0.015 8.887,12.401 8.887,12.401 9.533648,3.708615 19.2515,-21.695075 26.265249,-36.08758211 z"
       id="path-19" />
    <path
       d="m 237.08191,77.317553 c -0.66037,-6.467685 -0.91854,-14.205974 1.13676,-16.977453 3.771,-5.086 22.41601,-20.461 22.41601,-20.461 l 0.99397,12.830441 4.41352,-15.062541 c 0,0 4.88758,1.448532 9.61901,3.924069 4.22128,2.208625 8.22622,5.390562 9.976,6.633931 2.507,1.782 -4.78101,29.2 -9.976,34.134 -3.56707,3.386477 -14.08448,6.01248 -20.3258,7.325735 -11.92058,19.250945 -43.69073,67.350745 -61.24221,63.382465 -18.234,-4.122 -35.151,-67.86 -35.151,-67.86 l 30.755,-14.982 13.391,41.273 z M 28.095054,216.99966 l 7.485532,19.14402 c 0,0 1.137143,4.92853 1.772645,10.75335 0.634577,5.82489 0.878362,9.36818 4.735403,18.10817 2.687996,6.09033 -6.010661,4.27129 -8.477486,0.86885 -2.543294,-3.50901 -3.82965,-17.89236 -8.016872,-15.04629 -4.187221,2.84606 -5.448912,17.32219 -4.512211,30.99201 0.146804,2.14699 -1.343962,3.89977 -2.409923,4.51759 -1.729089,1.0007 -4.252249,-7.4586 -4.252249,-7.4586 0,0 -0.907521,2.97242 -3.660887,1.73103 -0.9747293,-0.43928 -3.8786973,-6.19479 -3.8786973,-6.19479 0,0 -2.2485065,-2.83638 -3.4311121,-6.00346 C 1.361587,262.82007 -0.34276652,252.44225 0.05909741,249.39287 1.0082147,242.20622 3.1438916,230.07614 5.9513058,223.35633 4.2939321,206.08918 -2.0595747,136.76465 1.4453069,123.59567 5.4566126,108.52729 13.316633,88.108088 13.316633,88.108088 l 30.160274,17.738622 -12.929544,27.6025 z M 132.33577,1.776 c 0,0 8.054,5.692 14.07,15.87 8.233,13.924 3.929,25.937 -8.738,25.957 C 124.10678,43.626 108.54278,39.01 101.98178,18.47 98.662775,8.08 95.527775,0 95.527775,0 Z"
       id="path-21" />
    <path
       d="M 32.879849,27.775952 C 29.039062,25.270922 24.346997,22.583621 22.4736,23.0206 c -2.286474,0.533331 1.955681,6.578324 4.987497,10.489958 -4.897685,1.96529 -11.390107,4.907933 -12.427097,7.057642 -0.718473,1.489413 2.087954,1.976035 5.564942,2.041823 -3.199556,1.534421 -5.991594,3.193061 -6.641042,4.540177 -0.832048,1.724859 3.063314,2.104826 7.252856,2.043773 -3.699913,1.688183 -7.166456,3.606733 -7.900356,5.128127 -1.238542,2.569045 8.009586,2.154606 13.096887,1.743177 L 25.094,61.8052 c -0.371,1.625 -1.851,2.753 -3.517,2.68 L 3.475,63.6942 c -2.154,-0.094 -3.696,-2.118 -3.215,-4.22 L 13.086,3.4162 c 0.372,-1.625 1.851,-2.752 3.516,-2.68 l 18.103,0.791 c 2.154,0.095 3.695,2.119 3.215,4.22 z"
       id="path-23" />
    <path
       d="M 102.63032,1.1280359 90.4991,0.5427 c 0,0 3.135,8.08 6.454,18.47 6.561,20.54 22.125,25.156 35.686,25.133 12.667,-0.02 16.971,-12.033 8.738,-25.957 -5.2988,-8.9646263 -12.17864,-14.4490963 -13.7437,-15.6293542 15.99464,1.081342 25.95447,3.0895049 35.1776,11.7403542 17.561,16.471 31.781,46.835 37.628,76.833 l -32.091,14.321 -11.43,44.167 -83.985,-1.28 c 0,0 0.735,-8.09 -1.076,-19.78 -2.359,-15.29 -10.875,-26.7 -10.875,-26.7 l -8.447,12.84 L 0,83.7307 C 17.199,52.3677 41.189,20.0297 57.184,9.7397 68.48381,2.4673161 78.829771,0.64192517 88.939069,0.5427 93.536252,0.4975776 98.151856,0.8103254 102.63032,1.1280359 Z"
       id="path-25" />
    <path
       d="M 30.084566,4.5740869 53.424172,4.0678492 56.008033,30.063497 58.545074,60.027111 H 0 C 7.8023033,35.158062 30.320615,31.253497 30.320615,31.253497 Z M 178.43162,9.7931148 176.03016,30.751746 c 0,0 44.67573,11.711746 61.47033,29.13159 L 155.15054,60.026721 157.33741,0 Z"
       id="path-27" />
    <path
       d="M 3.0491312,0 25.816172,7.9993361 25.687418,33.703336 0,32.513336 Z M 126.71286,7.0089049 148.84101,15.804175 148.6508,33.202561 126.033,32.371511 Z"
       id="path-29" />
    <path
       d="M 4.5868647,499.41871 C 5.6305533,466.9083 12.370635,261.54552 19.296045,139.36568 24.095061,54.680597 60.009652,8.0560074 66.749734,9.7540984e-5 H 152.32244 C 152.4785,1.081827 163.99712,82.617311 166.10498,253.22527 c 1.89229,152.78917 -0.0585,236.30376 -0.30238,246.12516 l -1.5e-4,0.005 2.73296,-0.004 0.0176,13.1534 -44.3119,0.0712 -0.0175,-13.1534 1.52787,-0.002 -9e-5,-0.001 -22.50173,-267.36959 -6.740082,-80.02262 -51.160246,347.32393 -3.31e-4,0.002 2.212755,-0.004 -0.772524,13.1534 -45.87742643,0.0741 0.77252463,-13.15243 2.9026004,-0.005 z"
       id="path-31" />
    <mask
       id="mask-4-9"
       fill="#ffffff">
      <use
         xlink:href="#path-3"
         id="use1615"
         x="0"
         y="0"
         width="100%"
         height="100%" />
    </mask>
    <mask
       id="mask-6-1"
       fill="#ffffff">
      <use
         xlink:href="#path-5"
         id="use1626"
         x="0"
         y="0"
         width="100%"
         height="100%" />
    </mask>
    <mask
       id="mask-8-2"
       fill="#ffffff">
      <use
         xlink:href="#path-7"
         id="use1637"
         x="0"
         y="0"
         width="100%"
         height="100%" />
    </mask>
    <mask
       id="mask-4-90"
       fill="#ffffff">
      <use
         xlink:href="#path-3"
         id="use1615-8"
         x="0"
         y="0"
         width="100%"
         height="100%" />
    </mask>
    <mask
       id="mask-6-9"
       fill="#ffffff">
      <use
         xlink:href="#path-5"
         id="use1626-3"
         x="0"
         y="0"
         width="100%"
         height="100%" />
    </mask>
    <mask
       id="mask-8-4"
       fill="#ffffff">
      <use
         xlink:href="#path-7"
         id="use1637-4"
         x="0"
         y="0"
         width="100%"
         height="100%" />
    </mask>
    <mask
       id="mask-4-96"
       fill="#ffffff">
      <use
         xlink:href="#path-3"
         id="use1615-1"
         x="0"
         y="0"
         width="100%"
         height="100%" />
    </mask>
    <mask
       id="mask-6-93"
       fill="#ffffff">
      <use
         xlink:href="#path-5"
         id="use1626-5"
         x="0"
         y="0"
         width="100%"
         height="100%" />
    </mask>
    <mask
       id="mask-8-6"
       fill="#ffffff">
      <use
         xlink:href="#path-7"
         id="use1637-5"
         x="0"
         y="0"
         width="100%"
         height="100%" />
    </mask>
    <path
       d="M 70.160896,112.544 69.314172,83.357333 c 0,0 35.521438,2.824 43.120578,-1.117333 0,0 9.28636,-47.775111 -1.7896,-74.232 L 110.42078,6.9768889 35.46036,0 30.445259,40.092088 C 27.920224,32.655643 7.8933167,25.302222 2.4452597,35.951111 -9.3590123,59.025778 32.850742,74.562667 32.850742,74.562667 l -4.286149,38.332443"
       id="path-1-5" />
    <path
       d="m 169.03409,15.812201 -0.28314,24.345152 c 0,0 54.57606,8.596934 73.07666,29.440927 H 133.09517 L 137.64954,0 Z M 42.806407,13.760994 42.524269,41.106425 c 0,0 22.986688,3.001278 32.343417,28.492154 H 0.44760486 L 7.890617,39.594788 12.716075,34.79894 Z"
       id="path-3-3" />
    <path
       d="m 129.75993,2.0503074 31.38455,9.4337336 -0.28315,24.344151 -33.6306,-1.511636 z M 6.5453927,0 37.928939,9.4327339 34.634656,36.777165 0,35.265528 Z"
       id="path-5-3" />
    <path
       d="m 81.066409,460.3752 h 4.926336 l -3.012146,28.12824 H 0 L 3.0121458,460.3752 H 8.5025435 L 70.287919,3.9990393e-4 109.10622,2.5426378e-4 203.52174,0 l -7.8404,460.87528 h 4.23226 v 27.12848 h -82.97959 v -27.12848 h 4.69546 l -4.69658,-172.84126 z"
       id="path-7-7" />
    <path
       d="M 211.1304,7.4649589 C 213.6944,1.6373402 227.1634,0 227.1634,0 c 0,0 21.495,23.920874 23.419,27.573325 1.923,3.652452 5.481,21.737754 5.312,25.310675 -0.17,3.572921 -11.255,19.629193 -11.255,19.629193 -6.878,-1.629386 -2.386,-9.921466 -2.386,-9.921466 0,0 -6.161,5.036288 -8.722,4.951786 -24.121,-0.795308 -22.829,-12.601654 -22.258,-14.079932 1.281,-3.320411 7.719,0.47619 7.719,0.47619 0,0 -15.195,-29.80317 -7.862,-46.4748121 z M 40.6001,18.870271 c 0,0 2.072,3.53912 4.407,10.211754 2.336,6.672633 1.364,10.755545 6.417,21.237703 5.735,11.897807 -4.523,6.990757 -8.201,1.797396 -2.871,-4.053088 -2.545,-9.532759 -6.267,-11.987278 -1.247,1.990258 -4.097,4.835472 -5.687,22.002193 -0.285,3.077842 1.111,13.064921 1.111,13.064921 0.03,2.992346 0.413,9.232531 -2.992,10.184912 -0.845,0.237598 -1.944,-0.695894 -1.944,-0.695894 0,0 0.33,3.904962 -3.152,4.682375 -1.368,0.305199 -4.087,-8.126059 -4.087,-8.126059 0,0 -0.414,4.281739 -3.014,4.756936 -0.735,0.135202 -9.412,-24.29268 -9.412,-24.29268 l 0.522,5.517448 1.151,5.650663 c 0,0 -0.092,3.041059 -2.536,3.57988 -0.97,0.213739 -2.832,-4.860326 -4.576,-10.828117 -2.715,-9.288203 -2.66,-16.266036 -1.862,-23.207086 0.965,-8.386522 1.219,-11.613484 4.952,-21.897809 z"
       id="path-9-1" />
    <path
       d="M 28.810887,18.719669 33.2877,9.941349e-5 52.7477,1.2030026 l 13.38,16.4628734 8.7,-15.1108499 6.21,0.3877126 1.929248,17.4774063 C 114.3408,32.383819 117.02886,44.058936 124.51,59.417852 c 8.175,16.78398 -1.805,133.279688 -1.805,133.279688 L 0,187.07471 c 0,0 16.627,-167.090213 27.518,-168.225515 0.429982,-0.04486 0.861001,-0.08802 1.292887,-0.129526 z"
       id="path-11-5" />
    <path
       d="m 36.7689,284.60044 8.736715,-39.56415 c 1.681013,1.22153 2.853683,2.0016 3.518011,2.3402 2.505236,1.27688 3.527006,0.64721 3.759577,-0.40023 0.250169,-1.1267 -0.938655,-4.14494 -3.014303,-9.32923 -0.414352,-1.03492 -0.932411,-2.56683 -1.554177,-4.59573 l 18.070177,-81.3836 -2.186,-19.67691 -14.33,76.86651 -49.74,2.33622 c 0,0 -0.98,-70.7327 8.49,-111.65129 6.03,-26.066217 39.915,-75.376302 55.504,-85.669575 6.617,-4.3692224 35.806,-12.90884122 35.806,-12.90884122 0,0 7.447,18.46705022 7.701,43.96064522 0.554,55.671551 -5.087,245.029401 -5.087,245.029401 z m 168.6803,-61.69631 -6.77,-14.03619 1.84,77.57135 -23.41,2.75475 c 0,0 -16.922,-210.492158 -18.706,-239.820132 -2,-32.882005 -2.364,-45.3583983 -2.904,-46.7402458 0,-0.00994 -0.01,-0.019883 -0.01,-0.019883 0,0 32.418,11.3291618 43.18,29.1211938 5.565,9.201713 14.8,78.116137 14.8,78.116137 l 35.5,88.97507 z"
       id="path-13-4" />
    <path
       d="M 31.6982,121.25821 2.1632,58.876247 c -3.361,-7.100111 -1.663,-15.549263 4.185,-20.819173 l 2.376,-2.141366 -0.155,-0.268416 C 3.7462,27.320418 5.6612,16.750775 13.1042,10.62094 l 11.725,-9.6570268 c 0,0 7.054,23.5450908 7.337,35.1635458 0.402,16.509598 -0.468,85.130751 -0.468,85.130751 z M 88.7407,120.6675 80.4897,2.6139783 95.7077,14.826926 c 6.318,5.071082 9.303,13.19714 7.757,21.121389 l -0.411,2.108561 0.917,0.770454 c 6.912,5.807736 9.43,15.293772 6.302,23.734971 z"
       id="path-15-7" />
    <mask
       id="mask-4-7"
       fill="#ffffff">
      <use
         xlink:href="#path-3-3"
         id="use1615-2"
         x="0"
         y="0"
         width="100%"
         height="100%" />
    </mask>
    <mask
       id="mask-6-6"
       fill="#ffffff">
      <use
         xlink:href="#path-5-3"
         id="use1626-9"
         x="0"
         y="0"
         width="100%"
         height="100%" />
    </mask>
    <mask
       id="mask-8-3"
       fill="#ffffff">
      <use
         xlink:href="#path-7-7"
         id="use1637-42"
         x="0"
         y="0"
         width="100%"
         height="100%" />
    </mask>
    <mask
       id="mask-2"
       fill="#ffffff">
      <use
         xlink:href="#path-1"
         id="use1337"
         x="0"
         y="0"
         width="100%"
         height="100%" />
    </mask>
  </defs>
  <g
     id="Scene"
     stroke="none"
     stroke-width="1"
     fill="none"
     fill-rule="evenodd"
     transform="translate(731.05242,135.40997)">
    <g
       id="Illustration-5"
       transform="translate(-211,-231)">
      <g
         id="g845"
         transform="translate(506.02976,-74.660129)">
        <g
           id="g3772"
           transform="matrix(-1,0,0,1,-157.74095,-278.62805)">
          <g
             id="Group-23"
             transform="translate(661.7741,447.51766)">
            <g
               id="Group-22"
               transform="rotate(4.0362719,-1145.9772,1093.7683)" />
            <path
               style="fill:#f0aedd;fill-opacity:1;stroke:#f0aedd;stroke-width:1px;stroke-linecap:butt;stroke-linejoin:miter;stroke-opacity:1"
               d="M 76.546045,35.775098 1.1082052,26.961055 -2.2618648,71.03127 c 0,0 -13.0199802,-12.062244 -20.7389302,-10.887935 -5.19505,0.790341 -10.393654,5.946651 -11.147174,11.147172 -1.1422,7.883085 5.718124,15.422232 11.406414,20.998161 5.90637,5.789698 22.03511016,11.406402 22.03511016,11.406402 l -4.40702996,38.62626 41.2186198,-0.51847 -1.03695,-29.81222 43.81098,-0.77771 c 0,0 3.6063,-22.93328 3.37008,-34.478455 -0.28199,-13.781959 -5.70321,-40.959377 -5.70321,-40.959377 z"
               id="path1263"
               sodipodi:nodetypes="cccaaacccccac" />
            <g
               id="g1261"
               transform="translate(-36.724349,1.3600994)">
              <path
                 d="M 39.114142,80.13717 C 38.974839,79.796922 38.819925,79.444917 38.648858,79.080832 32.881726,66.8065 23.936145,61.648749 18.060284,59.508371 14.849395,54.783817 12.318008,49.500183 11.477484,43.935332 8.8126212,26.32818 13.472094,10.23544 23.867751,5.6234905 34.39082,0.95442721 59.31671,3.2952057 87.30495,3.2952057 c 33.60509,0 35.45614,-3.29475949747 35.45614,-3.29475949747 0,0 29.62304,41.57179779747 -25.068558,40.36348079747 -28.660287,-0.633607 -44.96889,0.08121 -44.96889,0.08121 z"
                 id="Combined-Shape"
                 fill="#19141e" />
              <path
                 d="m 42.210404,71.195301 c -0.115234,0.271726 -0.243382,0.552843 -0.384892,0.843608 -4.770683,9.802528 -0.897205,-12.749685 -11.532029,7.840377 -2.656111,3.773123 -6.94982,15.783327 -7.645114,20.227524 -2.204424,14.06143 1.649979,26.91342 10.24947,30.59662 8.704885,3.72881 29.324061,1.85941 52.476473,1.85941 27.798778,0 29.329998,2.63127 29.329998,2.63127 0,0 24.50475,-33.20009 -20.737194,-32.2351 -23.708338,0.50601 -40.498672,-0.0648 -40.498672,-0.0648 z"
                 id="Combined-Shape-7"
                 fill="#19141e"
                 style="stroke-width:0.812794"
                 sodipodi:nodetypes="cscccscccc" />
            </g>
          </g>
          <g
             id="Person-/-Man-/-2"
             transform="translate(-2306.5572,-89.436881)"
             style="fill:none;fill-rule:evenodd;stroke:none;stroke-width:1">
            <a
               id="a2598-1"
               transform="translate(1719.1037,599.68551)">
              <g
                 id="Man-/-Legs-/-2-1"
                 transform="translate(987.41657,72.792109)">
                <g
                   id="Group-28-3"
                   transform="translate(145,182.23324)">
                  <g
                     id="Shoes-1"
                     transform="translate(8.9572178,465.75831)">
                    <mask
                       id="mask3497"
                       fill="#ffffff">
                      <use
                         xlink:href="#path-3-3"
                         id="use3495"
                         x="0"
                         y="0"
                         width="100%"
                         height="100%" />
                    </mask>
                    <use
                       id="use1618"
                       fill="#0d0b6d"
                       xlink:href="#path-3-3"
                       x="0"
                       y="0"
                       width="100%"
                       height="100%" />
                    <g
                       id="Colors-/-Wear-/-Blue"
                       mask="url(#mask-4-7)"
                       fill="#2437a8"
                       fill-rule="nonzero">
                      <g
                         transform="translate(0,36.788962)"
                         id="g1622">
                        <rect
                           x="0"
                           y="0"
                           width="242"
                           height="33"
                           id="rect1620"
                           style="fill:#000000" />
                      </g>
                    </g>
                  </g>
                  <g
                     id="Legs"
                     transform="matrix(1.0182006,0,0,1,136.82188,519.68051)">
                    <mask
                       id="mask3506"
                       fill="#ffffff">
                      <use
                         xlink:href="#path-5-3"
                         id="use3504"
                         x="0"
                         y="0"
                         width="100%"
                         height="100%" />
                    </mask>
                    <use
                       id="use1629"
                       fill="#cf3e83"
                       xlink:href="#path-5-3"
                       x="0"
                       y="0"
                       width="100%"
                       height="100%"
                       transform="matrix(0.9818304,0,0,1,-117.83466,-49.857363)"
                       style="fill:#f0aedd;fill-opacity:1" />
                  </g>
                  <g
                     id="Pants-3"
                     transform="translate(1.003547)">
                    <mask
                       id="mask3515"
                       fill="#ffffff">
                      <use
                         xlink:href="#path-7-7"
                         id="use3513"
                         x="0"
                         y="0"
                         width="100%"
                         height="100%" />
                    </mask>
                    <use
                       id="use1640"
                       fill="#2f2f3d"
                       xlink:href="#path-7-7"
                       x="0"
                       y="0"
                       width="100%"
                       height="100%" />
                    <g
                       id="Colors-/-Wear-/-Black-2"
                       mask="url(#mask-8-3)"
                       fill="#19141e"
                       fill-rule="nonzero">
                      <g
                         transform="translate(5.02e-4)"
                         id="g1644">
                        <rect
                           x="0"
                           y="0"
                           width="203"
                           height="489"
                           id="rect1642"
                           style="fill:#cccccc" />
                      </g>
                    </g>
                  </g>
                  <polygon
                     id="Fill-15"
                     fill="#000000"
                     opacity="0.200358"
                     points="119.68179,368.3911 116.54715,304.01256 151.12257,81.12611 " />
                </g>
              </g>
            </a>
          </g>
          <g
             id="Man-/-Body-/-5"
             transform="matrix(1,0,0,0.98689564,530.55488,544.6517)">
            <g
               id="Skin-color"
               transform="translate(17,41.643001)">
              <mask
                 id="mask-10"
                 fill="#ffffff">
                <use
                   xlink:href="#path-9"
                   id="use1400"
                   x="0"
                   y="0"
                   width="100%"
                   height="100%" />
              </mask>
              <use
                 id="use1403"
                 fill="#e576c6"
                 xlink:href="#path-9"
                 transform="translate(-0.09997144,-1.3872843)"
                 x="0"
                 y="0"
                 width="100%"
                 height="100%"
                 style="fill:#f0aedd;fill-opacity:1" />
            </g>
            <g
               id="g1428"
               transform="translate(287,21.637346)">
              <mask
                 id="mask-14"
                 fill="#ffffff">
                <use
                   xlink:href="#path-13"
                   id="use1422"
                   x="0"
                   y="0"
                   width="100%"
                   height="100%" />
              </mask>
              <g
                 id="Clip-21" />
              <path
                 d="M 32.83374,63.507298 30.9762,72.596502 H 0.8872 L 15.0802,0.23342287 h 30.089 C 44.389263,4.2099345 42.552284,13.575781 39.658263,28.330961 l -5.916564,-2.734521 -1.842773,-0.509323 -1.450626,0.0812 -0.628808,0.428126 v 1.758182 l 6.431851,9.224387 -4.920149,2.137657 -7.570208,3.960153 -2.187256,1.510259 -0.847442,0.782614 -0.691988,0.618179 -0.441038,0.530804 -0.264862,0.474738 -0.113817,0.61648 0.113817,0.272805 0.131591,0.209791 0.191407,0.189465 2.481292,0.87419 5.660279,-1.546251 h 5.594238 L 25.920166,48.756144 21,51.691753 19.3284,53.263292 18.3836,54.4181 v 1.056516 l 1.6507,0.740742 10.414,-1.192079 L 27,56.893988 24.714844,58.307021 22.620117,59.384648 21,61.469031 v 1.028599 l 0.57373,0.604102 1.45447,0.771327 h 2.217894 4.468153 z"
                 id="path1426"
                 fill="#5e93d1"
                 mask="url(#mask-14)"
                 style="fill:#333333" />
            </g>
            <g
               id="Group-25"
               transform="translate(282,21.637346)">
              <mask
                 id="mask-16"
                 fill="#ffffff">
                <use
                   xlink:href="#path-15"
                   id="use1430"
                   x="0"
                   y="0"
                   width="100%"
                   height="100%" />
              </mask>
              <g
                 id="Clip-24" />
              <polygon
                 id="polygon1434"
                 fill="#020101"
                 mask="url(#mask-16)"
                 points="15.0974,0.23342287 20.0754,0.23342287 5.8834,72.596502 0.9044,72.596502 " />
            </g>
            <path
               d="m 307.2574,30.2728 c -0.416,2.11353 -1.649,3.653445 -2.754,3.437718 -1.104,-0.214733 -1.663,-2.102595 -1.247,-4.216126 0.416,-2.114525 1.649,-3.653446 2.754,-3.438713 1.105,0.215728 1.663,2.10359 1.247,4.217121"
               id="path1437"
               fill="#020101" />
            <g
               id="g1098"
               transform="translate(354.63561,-37.825746)">
              <g
                 id="T-Shirt"
                 transform="matrix(1.0677978,0,0,1.353145,-280.58959,20.785463)"
                 style="fill:#ffe680">
                <mask
                   id="mask-12"
                   fill="#ffffff">
                  <use
                     xlink:href="#path-11"
                     id="use1412"
                     x="0"
                     y="0"
                     width="100%"
                     height="100%" />
                </mask>
                <path
                   style="fill:#e9c6af;fill-opacity:1;stroke:#e9c6af;stroke-width:0.837428px;stroke-linecap:butt;stroke-linejoin:miter;stroke-opacity:1"
                   d="m 97.444107,50.361135 c 0,0 25.891233,7.791952 35.930973,21.741957 11.81273,16.413543 20.12312,38.747868 20.12312,38.747868 l -17.81317,14.85339 0.11782,95.09822 -134.4983632,-1.16474 -4.91192,-81.0304 -41.7306798,-30.55999 c 0,0 19.71714,-31.456774 34.98931,-43.709332 20.92182,-16.785152 47.58426,-19.800714 47.58426,-19.800714 l -1.15319,-3.494238 33.68529,16.209406 28.63114,-11.020022 z"
                   id="path1089"
                   sodipodi:nodetypes="csccccccsccccc" />
              </g>
              <path
                 style="fill:#e3dedb;fill-opacity:1;stroke:#e3dedb;stroke-width:1.02275px;stroke-linecap:butt;stroke-linejoin:miter;stroke-opacity:1"
                 d="m -258.97497,144.42744 104.10189,-0.5594 19.97611,47.22933 -0.26526,131.27005 -144.69682,0.754 -4.47515,-113.85144 z"
                 id="path1091"
                 sodipodi:nodetypes="ccccccc" />
              <path
                 style="fill:none;stroke:#000000;stroke-width:1.00662px;stroke-linecap:butt;stroke-linejoin:miter;stroke-opacity:1;opacity:0.13677812"
                 d="m -244.97743,477.69601 -46.66258,-4.20285 2.07389,16.81144 34.21923,4.20286 z"
                 id="path1100" />
              <path
                 style="fill:none;stroke:#000000;stroke-width:1.00662px;stroke-linecap:butt;stroke-linejoin:miter;stroke-opacity:1;opacity:0.137"
                 d="m -244.97743,480.84816 -8.55481,48.3329 -43.2925,-4.9909 4.14778,-47.28218"
                 id="path1102" />
            </g>
          </g>
          <g
             id="g1247"
             transform="translate(2.3331308,-3.3700755)">
            <path
               d="m 707.53644,518.96415 c 0.46381,2.73165 -1.23823,5.3464 -3.80008,5.8399 -2.56269,0.49439 -5.0157,-1.31898 -5.47868,-4.05063 -0.46381,-2.73165 1.23823,-5.3455 3.80008,-5.8399 2.56269,-0.49439 5.0157,1.31898 5.47868,4.05063"
               id="path1350"
               fill="#0d0b6d"
               style="fill:#060535;fill-opacity:1;stroke-width:0.965955" />
            <path
               d="m 733.8819,518.96415 c 0.46381,2.73165 -1.23823,5.3464 -3.80008,5.8399 -2.56269,0.49439 -5.0157,-1.31898 -5.47868,-4.05063 -0.46381,-2.73165 1.23823,-5.3455 3.80008,-5.8399 2.56269,-0.49439 5.0157,1.31898 5.47868,4.05063"
               id="path1352"
               fill="#0d0b6d"
               style="fill:#060535;fill-opacity:1;stroke-width:0.965955" />
            <path
               d="m 706.20452,544.57068 c 0,0 5.3332,9.05305 15.26457,5.10654"
               id="Stroke-21"
               stroke="#252535"
               stroke-width="4"
               sodipodi:nodetypes="cc"
               style="stroke:#030304;stroke-opacity:1" />
            <path
               d="m 701.36933,542.13566 c 0,0 3.702,-6.81242 16.70162,-4.55772 12.99975,2.25381 13.45289,11.35723 13.45289,11.35723 z"
               id="path1358"
               fill="#19141e" />
            <path
               d="m 694.08778,505.81952 c 0,0 5.35035,1.79523 11.46873,-3.67142"
               id="Stroke-15-3-2"
               stroke="#24242b"
               stroke-width="2.8373"
               style="stroke:#000000;stroke-opacity:1" />
            <path
               d="m 723.47329,500.61934 c 0,0 2.85098,4.5836 11.12048,5.11348"
               id="Stroke-15-0-6"
               stroke="#24242b"
               stroke-width="2.69854"
               inkscape:transform-center-x="1.9270021"
               inkscape:transform-center-y="4.0319147"
               style="stroke:#000000;stroke-opacity:1" />
          </g>
          <path
             style="fill:none;stroke:#000000;stroke-width:0.898336px;stroke-linecap:butt;stroke-linejoin:miter;stroke-opacity:1"
             d="m 556.24316,842.90178 1.97196,0.0387 1.35579,0.10004 0.57234,0.0547 2.10343,0.11603 0.2191,0.73482 -2.01578,-0.1547 -1.75285,-0.0773 c 1.93528,0.005 -1.74028,0.009 -2.23489,0 z"
             id="path719"
             sodipodi:nodetypes="cccccccccc" />
          <path
             d="m 560.11294,843.07082 c 0.1161,0.63797 -0.30993,1.24865 -0.95117,1.3639 -0.64144,0.11547 -1.25543,-0.30805 -1.37132,-0.94602 -0.11609,-0.63797 0.30994,-1.24844 0.95117,-1.3639 0.64145,-0.11546 1.25544,0.30804 1.37132,0.94602"
             id="path1350-81"
             fill="#0d0b6d"
             style="fill:#dbe3e2;stroke-width:0.233549" />
          <path
             style="fill:none;stroke:#000000;stroke-width:0.476371px;stroke-linecap:butt;stroke-linejoin:miter;stroke-opacity:1"
             d="m 559.00426,843.43496 c 0,0 -0.13685,0.20131 -0.22994,0.18327 -0.0931,-0.0181 -0.22091,-0.0515 -0.2265,-0.21011 -0.006,-0.15855 0.43934,-0.46937 0.43934,-0.46937 0,0 0.39003,0.2902 0.40387,0.43388 0.0139,0.14369 -0.0636,0.20326 -0.14462,0.23196 -0.0811,0.0286 -0.24215,-0.16963 -0.24215,-0.16963 z"
             id="path743"
             sodipodi:nodetypes="czzczzc" />
          <ellipse
             style="fill:none;stroke:#10030c;stroke-width:1.62621;stroke-miterlimit:4;stroke-dasharray:none;stroke-dashoffset:47.2951;stroke-opacity:1"
             id="path1181"
             cx="703.26752"
             cy="517.71552"
             rx="10.944356"
             ry="10.166646" />
          <ellipse
             style="fill:none;stroke:#10030c;stroke-width:1.63934;stroke-miterlimit:4;stroke-dasharray:none;stroke-dashoffset:47.2951;stroke-opacity:1"
             id="path1181-6"
             cx="734.81189"
             cy="516.24249"
             rx="11.029447"
             ry="10.251737" />
          <polygon
             id="polygon1348"
             fill="#405fd3"
             points="87.743082,82.982694 89.398527,62.571606 97.739459,82.855973 "
             transform="matrix(1.2383867,0,0,1.0718464,607.96339,442.63362)"
             inkscape:transform-center-x="-1.3052812"
             inkscape:transform-center-y="-1.4244706"
             style="fill:#800080;fill-opacity:1" />
          <path
             d="m 657.38974,516.58674 c 0,0 0,0 34.42877,-0.31057"
             id="Stroke-21-9-0"
             stroke="#252535"
             stroke-width="4"
             sodipodi:nodetypes="cc"
             style="stroke:#000000;stroke-width:1.90110236;stroke-miterlimit:4;stroke-dasharray:none;stroke-opacity:1" />
        </g>
      </g>
    </g>
  </g>
</svg>
