<?xml version="1.0" encoding="UTF-8" standalone="no"?>
<svg
   xmlns:dc="http://purl.org/dc/elements/1.1/"
   xmlns:cc="http://creativecommons.org/ns#"
   xmlns:rdf="http://www.w3.org/1999/02/22-rdf-syntax-ns#"
   xmlns:svg="http://www.w3.org/2000/svg"
   xmlns="http://www.w3.org/2000/svg"
   xmlns:sodipodi="http://sodipodi.sourceforge.net/DTD/sodipodi-0.dtd"
   xmlns:inkscape="http://www.inkscape.org/namespaces/inkscape"
   width="1407.3596"
   height="997.83765"
   viewBox="0 0 1407.3596 997.83767"
   version="1.1"
   id="svg6852"
   sodipodi:docname="bg-Nicole.svg"
   inkscape:version="1.0.2-2 (e86c870879, 2021-01-15)">
  <metadata
     id="metadata6856">
    <rdf:RDF>
      <cc:Work
         rdf:about="">
        <dc:format>image/svg+xml</dc:format>
        <dc:type
           rdf:resource="http://purl.org/dc/dcmitype/StillImage" />
        <dc:title>bg-Nicole</dc:title>
      </cc:Work>
    </rdf:RDF>
  </metadata>
  <sodipodi:namedview
     pagecolor="#ffffff"
     bordercolor="#666666"
     borderopacity="1"
     objecttolerance="10"
     gridtolerance="10"
     guidetolerance="10"
     inkscape:pageopacity="0"
     inkscape:pageshadow="2"
     inkscape:window-width="1920"
     inkscape:window-height="991"
     id="namedview6854"
     showgrid="false"
     inkscape:zoom="0.64976226"
     inkscape:cx="965.63434"
     inkscape:cy="545.99236"
     inkscape:window-x="-9"
     inkscape:window-y="-9"
     inkscape:window-maximized="1"
     inkscape:current-layer="Illustration-1"
     inkscape:document-rotation="0" />
  <!-- Generator: Sketch 53.2 (72643) - https://sketchapp.com -->
  <title
     id="title6519">bg-Nicole</title>
  <desc
     id="desc6521">Created with Sketch.</desc>
  <defs
     id="defs6537">
    <path
       d="m 78.101029,86.330963 c -6.87,3.94 -18.601,4.92 -28.82,4.33 l -2.35,29.039997 -33.37,-13.73 c 0,0 3.2,-32.039997 4.59,-44.339997 -6.71,-6.09 -18.13000008,-8.91 -18.151000078621,-19.25 -0.0090000014,-3.57 2.079999978621,-9.77 9.799999978621,-9.78 10.3700001,-0.01 8.8910001,12.4 8.8910001,12.4 11.71,4.56 23.7,-34.82 30.62,-43.7500003 3.779,-4.87 32.8,6.05 32.8,6.05 l 17.45,4.6700003 c 0,0 0.609001,61.69 -21.46,74.36"
       id="path-1" />
    <path
       d="m 326.12538,87.825769 5.52404,20.974041 c 0,0 43.88847,-18.872118 67.56154,-10.525002 L 320.76385,147.42385 300.98115,88.766154 Z M 60.029038,24.797115 35.516539,49.311538 c 0,0 2.226923,13.349039 2.335576,28.811539 0.157693,22.382693 -2.93173,44.297113 -2.93173,44.297113 L 1.9230769e-4,42.481731 51.513654,0 Z"
       id="path-3" />
    <path
       d="m 276.00058,76.391635 25.74038,-4.799039 9.71635,37.230764 -20.73558,8.93462 z M 30.962692,0 33.656923,31.067308 15.324231,49.334615 0.76846154,24.919231 Z"
       id="path-5" />
    <path
       d="M 170.34922,319.82057 C 130.39028,399.34931 61.602885,466.77019 61.602885,466.77019 L 0.01634615,375.44231 c 0,0 82.04764085,-72.03808 120.76892385,-231.11412 C 114.27635,118.1925 109.65039,96.663654 108.02635,82.865577 102.69942,37.682885 129.57346,7.2598077 136.785,1.9230769e-4 h 3.30826 L 221.12115,0 c 1.73172,6.4422696 8.59704,42.557265 6.22216,95.758671 7.15323,23.770369 15.52823,52.462679 25.23015,86.904979 55.23077,196.0577 80.84616,282.51923 80.84616,282.51923 l -104.99904,37.45193 c 0,0 -30.13958,-90.25151 -58.07137,-182.81425 z"
       id="path-7" />
    <polygon
       id="path-9"
       points="0.218,140 45.603,140 45.603,0 0.218,0 " />
    <path
       d="m 227.31074,228.59676 -20.78739,8.76507 c 0.0533,-3.18585 0.54627,-6.2183 1.67335,-8.86843 2.151,-5.059 13.453,-6.48 13.453,-6.48 0,0 2.46862,2.84187 5.66104,6.58336 z m 6.43365,7.62615 c 3.67145,4.41566 6.91372,8.46219 7.55631,9.72349 1.614,3.171 4.599,18.868 4.457,21.969 -0.143,3.101 -9.444,17.037 -9.444,17.037 -5.771,-1.414 -2.002,-8.611 -2.002,-8.611 0,0 -5.17,4.371 -7.318,4.298 -20.241,-0.69 -19.156,-10.938 -18.678,-12.221 1.075,-2.882 6.478,0.413 6.478,0.413 0,0 -5.22374,-10.59741 -7.37057,-22.02058 z M 137.6576,22.6301 c -17.513,-1.644 -25.318,-16.296 -28.167,-21.896 6.219,-0.07 12.215,0.667 18.026,1.006 11.675,0.678 20.574,0.987 27.888,2.302 0.486,1.754 4.117,20.631 -17.747,18.588 z M 36.762563,229.35367 39.5883,238.3898 c 0,0 0.757,5.061 0.891,10.98 0.133,5.918 0.062,9.506 3.379,18.643 2.312,6.367 -6.845,3.771 -9.171,0.129 -2.4,-3.757 -2.428,-18.348 -7.186,-15.851 -4.757,2.496 -7.468,16.956 -7.746,30.797 -0.043,2.175 -1.807,3.808 -3.008,4.335 -1.947,0.855 -3.859,-7.881 -3.859,-7.881 0,0 -1.253,2.911 -4.089,1.419 -1.003,-0.527 -3.578,-6.577 -3.578,-6.577 0,0 -2.145,-3.052 -3.115,-6.344 -1.714,-5.812 -2.569,-16.409 -1.851,-19.443 0.9168623,-3.87636 3.3885707,-10.95925 5.5194819,-16.78676 z"
       id="path-11" />
    <path
       d="m 189.6351,24.7962 44.871,-18.92 3.404,9.062 -45.64,18.359 z M 0.3187,4.7581 50.9357,0.3741 v 9.539 l -50.461,4 z"
       id="path-13" />
    <path
       d="M 71.028483,116.94243 70.166839,87.129053 c 0,0 36.147381,2.884638 43.880441,-1.141325 0,0 9.4509,-48.801865 -1.82115,-75.826847 L 111.99781,9.1085374 35.71647,0.16588712 31.439941,44.03681 C 28.870411,36.440687 7.663651,27.827359 2.1204966,38.704906 -9.8926913,62.275041 33.060866,78.145544 33.060866,78.145544 l -4.361678,39.154626"
       id="path-15" />
    <path
       d="m 182.33096,15.879113 -0.28321,24.450722 c 0,0 54.78299,8.633859 73.35408,29.56738 H 146.25613 L 150.82784,0 Z M 42.520995,13.819999 42.236775,41.282883 c 0,0 23.074267,3.014169 32.466645,28.614533 H 8.0629921e-4 L 5.4554205,39.763749 21.982539,30.554566 Z"
       id="path-17" />
    <path
       d="m 145.78867,2.5934713 31.50312,9.4732487 -0.28321,24.449718 -33.75975,-1.51813 z M 5.9786079,0.53345386 37.481726,10.007707 37.197505,37.469586 0.41514331,35.950452 Z"
       id="path-19" />
    <path
       d="m 185.83795,469.25796 -0.72647,22.69197 h -41.55464 l 0.72864,-22.76001 c -4.6554,-1.86866 -7.98165,-6.36307 -8.09509,-11.67332 l -6.68877,-339.89145 -72.274533,343.1494 c -1.018374,4.82704 -4.596081,8.57574 -9.139627,9.9574 l -2.717104,21.21798 H 1.7999622 L 5.549789,468.52389 C 1.9216091,465.7098 -0.18109068,461.081 0.54223622,456.13683 L 67.082079,1.3355352 l 60.131061,-2.084e-4 -0.003,-0.1735167 h 72.82982 L 195.6741,456.88103 c -0.0605,5.99257 -4.22661,11.00582 -9.83615,12.37693 z"
       id="path-21" />
    <polygon
       id="path-23"
       points="76.592335,0.42873299 83.571604,1.568344 7.4606299,465.04207 0.46075295,463.87292 " />
    <path
       d="m 316.9268,62.681597 -0.5,-8.629091 c 0,0 0.01,-6.004575 0.79,-12.486334 0.78,-6.48176 5.28,-14.14654 0.52,-25.589032 -4.76,-11.4325517 6.62,-3.539121 9.14,1.898797 2.1,4.533255 0.99,14.067009 3.57,17.556422 2.18,-1.18302 3.63,-2.723929 3.63,-2.723929 l 24.53,-31.6333725 c 0.79,-1.06372436 2.25,-1.38184753 3.42,-0.75554254 l 1.32,0.71577714 c 1.39,0.7555425 1.83,2.5251026 0.94,3.817478 -4.79,6.9887679 -19.63,27.4878299 -19.23,27.6965979 l 0.65,0.785367 28.81,-30.2018183 c 0.9,-1.0040762 2.41,-1.1830205 3.52,-0.4175366 l 1.73,1.1929618 c 1.26,0.8648974 1.53,2.5946921 0.59,3.787654 -5.73,7.3565981 -27.23,30.7088271 -26.82,30.9374781 l 0.86,0.825132 26.82,-23.551056 c 0.95,-1.053783 2.57,-1.173079 3.67,-0.288299 l 1.31,1.063724 c 1.15,0.924546 1.32,2.604634 0.38,3.737948 l -25.33,23.680293 0.73,1.143255 21.99,-15.359384 c 1.01,-0.894722 2.53,-0.894722 3.55,-0.0099 l 0.61,0.546775 c 1.08,0.954369 1.2,2.594692 0.26,3.698181 -3.22,3.787654 -13.22,10.130235 -21.08,17.954077 -6.1,6.074164 -9.09,11.830205 -17.61,18.64997 -3.6,2.892933 -6.81,4.404018 -9.87,6.004575 z M 119.2173,42.883401 c 0,0 16.947,-0.03281 29.178,-0.07357 12.23,-0.04175 27.61,5.098917 27.61,5.098917 0,0 8.003,17.969983 -19.797,16.342584 -27.8,-1.629387 -36.991,-21.367935 -36.991,-21.367935 z M 0.01030048,178.93911 C -0.60469952,156.30365 26.5243,115.60178 26.5243,115.60178 l 47.486,21.12537 -19.539,41.60057 53.728,74.86929 -22.118,18.00776 c 0,0 -85.34499953,-65.57711 -86.07099952,-92.26566 z"
       id="path-25" />
    <path
       d="m 101.92872,177.8146 13.21181,17.71911 -39.795002,34.66747 c 0,0 -73.027,-53.4944 -75.28200001,-95.43695 C -1.372472,108.04984 22.012528,69.915817 22.012528,69.915817 c 0,0 29.352,-46.884396 63.282,-62.7070466 C 92.257539,3.9615711 109.13944,1.2530309 119.37333,0.1356 c 3.13693,-0.34251894 1.26138,0.8790323 2.33832,2.9465164 1.1251,2.1599187 4.5498,5.3604374 6.91895,7.7526516 4.93115,4.979161 14.64941,8.749398 19.86963,9.521212 3.97798,0.588149 11.6665,1.500552 15.36474,1.004086 3.69825,-0.496466 7.71936,-2.165083 8.79395,-3.156427 1.07458,-0.991344 2.67309,-2.231707 3.50241,-4.14231 0.82931,-1.910603 0.78714,-1.363306 0.78714,-3.125845 0,-1.762539 -0.091,-1.5018817 -0.26367,-2.340683 -0.17267,-0.8388013 -0.17267,-1.3430715 -0.27442,-1.7765064 -0.45024,-1.9180938 -0.24905,-1.6573427 -0.24905,-1.6573427 20.02951,6.0459981 30.17541,8.2835621 37.47213,17.0790681 l 55.76377,39.111126 38.154,-49.757445 49.23,33.035102 c 0,0 -43.589,81.162167 -75.179,90.135227 -25.44682,7.22811 -51.22586,-15.25096 -60.28984,-24.26715 l 10.76914,54.63718 c 1.726,9.43334 -6.539,13.00328 -13.903,12.66925 z"
       id="path-27" />
  </defs>
  <g
     id="Scene"
     stroke="none"
     stroke-width="1"
     fill="none"
     fill-rule="evenodd"
     transform="translate(-5.35222,-276.45469)">
    <g
       id="Illustration-1"
       transform="translate(-186,-96)">
      <g
         id="Background-Object-/-Tree-/-3"
         transform="matrix(1,0,0,1.3769925,162,398.97411)">
        <g
           id="Group-12"
           transform="translate(234,30)">
          <path
             d="m 266.9312,284.2735 c 0,131.425 -105.56654,237.965 -235.78949,237.965 -130.222948,0 -235.78949,-106.54 -235.78949,-237.965 0,-131.425 105.566542,-237.965103 235.78949,-237.965103 130.22295,0 235.78949,106.540103 235.78949,237.965103"
             id="Fill-1"
             fill="#ecf6ff"
             style="fill:#a5adb9;fill-opacity:1;stroke-width:0.995417" />
          <path
             d="m 28.9654,174.1885 7.0345,502.38781"
             id="Stroke-4"
             stroke="#b6d4ff"
             stroke-width="8"
             style="stroke:#000000;stroke-opacity:1"
             sodipodi:nodetypes="cc" />
          <path
             d="m 32.9654,399.8687 52.974,-52.973"
             id="Stroke-6"
             stroke="#b6d4ff"
             stroke-width="8"
             style="stroke:#000000;stroke-opacity:1" />
          <path
             d="m 30.9654,240.8599 27.276,-27.276"
             id="Stroke-8"
             stroke="#b6d4ff"
             stroke-width="8"
             style="stroke:#000000;stroke-opacity:1" />
          <path
             d="m 28.9654,320.837 -50.769,-50.768"
             id="Stroke-10"
             stroke="#b6d4ff"
             stroke-width="8"
             style="stroke:#000000;stroke-opacity:1" />
          <path
             d="m 592.14161,219.82767 c 0,143.48137 -106.541,259.79489 -237.966,259.79489 -131.425,0 -237.966,-116.31352 -237.966,-259.79489 0,-143.481458 106.541,-259.794928 237.966,-259.794928 131.425,0 237.966,116.31347 237.966,259.794928"
             id="Fill-1-0"
             fill="#ecf6ff"
             style="fill:#88aeee;fill-opacity:1;stroke-width:1.04487" />
          <path
             d="M 354.17581,29.670271 352.63679,676.06229"
             id="Stroke-4-6"
             stroke="#b6d4ff"
             stroke-width="9.15813"
             style="stroke:#002c53;stroke-opacity:1"
             sodipodi:nodetypes="cc" />
          <path
             d="m 354.17581,325.42175 52.974,-69.42054"
             id="Stroke-6-5"
             stroke="#b6d4ff"
             stroke-width="9.15813"
             style="stroke:#002c53;stroke-opacity:1" />
          <path
             d="m 354.17581,117.04242 27.276,-35.7449"
             id="Stroke-8-1"
             stroke="#b6d4ff"
             stroke-width="9.15813"
             style="stroke:#002c53;stroke-opacity:1" />
          <path
             d="m 354.17581,221.85156 -50.769,-66.53092"
             id="Stroke-10-1"
             stroke="#b6d4ff"
             stroke-width="9.15813"
             style="stroke:#002c53;stroke-opacity:1" />
        </g>
      </g>
      <g
         id="Background-Object-/-Tree-/-4"
         transform="matrix(1,0,0,1.2193883,960.92195,261.49105)">
        <g
           id="g6556"
           transform="translate(308,24)">
          <path
             d="m 329.7899,476.8196 c 0,113.31 -73.99,164.16 -164.899,164.16 -90.901,0 -164.891,-50.85 -164.891,-164.16 0,-211.07 89.99,-408.180002 164.891,-408.180002 74.909,0 164.899,197.110002 164.899,408.180002"
             id="path6546"
             fill="#ecf6ff"
             style="fill:#51739d;fill-opacity:1" />
          <path
             d="m 164.8954,225.7275 6.1561,655.50809"
             id="path6548"
             stroke="#cce3ff"
             stroke-width="8"
             stroke-linecap="square"
             sodipodi:nodetypes="cc" />
          <path
             d="m 169.8954,498.9775 61.236,-61.237"
             id="path6550"
             stroke="#cce3ff"
             stroke-width="8"
             stroke-linecap="square" />
          <path
             d="m 166.8954,301.9628 38.052,-38.052"
             id="path6552"
             stroke="#cce3ff"
             stroke-width="8"
             stroke-linecap="square" />
          <path
             d="m 162.8954,409.5527 -56.456,-56.456"
             id="path6554"
             stroke="#cce3ff"
             stroke-width="8"
             stroke-linecap="square" />
        </g>
      </g>
      <g
         id="Background-Object-/-Tree-/-5"
         transform="matrix(1,0,0,1.2479475,639.19756,-25.811954)">
        <g
           id="g6569"
           transform="translate(300,205.23156)">
          <path
             d="m 342.2196,559.22195 c 0,89.47905 -74.75,139.39795 -172.109,139.39795 -97.361,0 -172.111,-49.9189 -172.111,-139.39795 0,-188.39502 109.851,-405.58521 172.111,-405.58521 62.259,0 172.109,217.19019 172.109,405.58521"
             id="path6559"
             fill="#cce3ff"
             style="fill:#549ada;fill-opacity:1;stroke-width:0.883857" />
          <path
             d="m 172.1102,333.7835 3.71553,576.09342"
             id="path6561"
             stroke="#ecf6ff"
             stroke-width="8"
             stroke-linecap="square"
             sodipodi:nodetypes="cc"
             style="stroke:#003665;stroke-opacity:1" />
          <path
             d="m 174.1669,629.8703 60.915,-60.915"
             id="path6563"
             stroke="#ecf6ff"
             stroke-width="8"
             stroke-linecap="square"
             style="stroke:#003665;stroke-opacity:1" />
          <path
             d="m 169.0106,513.8073 -49.846,-49.846"
             id="path6565"
             stroke="#ecf6ff"
             stroke-width="8"
             stroke-linecap="square"
             style="stroke:#003665;stroke-opacity:1" />
          <path
             d="m 175.1102,435.7233 38.052,-38.053"
             id="path6567"
             stroke="#ecf6ff"
             stroke-width="8"
             stroke-linecap="square"
             style="stroke:#003665;stroke-opacity:1" />
        </g>
      </g>
      <g
         id="Background-Object-/-Sofa-/-4"
         transform="matrix(0.80017059,0,0,0.80038421,235.41936,709.85954)">
        <g
           id="Group-17"
           transform="translate(254,426)">
          <polygon
             id="polygon6572"
             fill="#cce3ff"
             points="778.5319,398.9253 736.0949,201.2463 708.0219,201.2463 750.4589,398.9253 "
             style="fill:#00070f;fill-opacity:1" />
          <polygon
             id="Fill-2"
             fill="#d7ebff"
             points="752.422,170.666 25.785,170.666 25.785,201.245 752.422,201.245 "
             style="fill:#375771;fill-opacity:1" />
          <polygon
             id="Fill-3"
             fill="#d7ebff"
             points="740.018,281.407 598.347,281.407 598.347,311.987 740.018,311.987 "
             style="fill:#00070f;fill-opacity:1" />
          <polygon
             id="Fill-4"
             fill="#cce3ff"
             points="182.5062,170.666 214.3522,0 175.9212,0 144.0752,170.666 "
             style="fill:#00070f;fill-opacity:1" />
          <polygon
             id="Fill-5"
             fill="#cce3ff"
             points="736.4084,170.666 768.2544,0 729.8244,0 697.9784,170.666 "
             style="fill:#00070f;fill-opacity:1" />
          <polygon
             id="Fill-6"
             fill="#b6d4ff"
             points="752.422,170.667 582.025,170.667 582.025,201.246 752.422,201.246 "
             style="fill:#00070f;fill-opacity:1" />
          <polygon
             id="Fill-7"
             fill="#cce3ff"
             points="762.4474,141.836 768.1554,111.25 806.5814,111.25 800.8844,141.836 "
             style="fill:#00070f;fill-opacity:1" />
          <polygon
             id="Fill-8"
             fill="#d7ebff"
             points="115.7106,141.836 121.4186,111.25 768.1556,111.25 762.4476,141.836 "
             style="fill:#375771;fill-opacity:1" />
          <polygon
             id="Fill-9"
             fill="#cce3ff"
             points="772.8233,86.202 778.5313,55.627 816.9573,55.627 811.2603,86.202 "
             style="fill:#00070f;fill-opacity:1" />
          <polygon
             id="Fill-10"
             fill="#d7ebff"
             points="126.0866,86.202 131.7946,55.627 778.5316,55.627 772.8236,86.202 "
             style="fill:#375771;fill-opacity:1" />
          <polygon
             id="Fill-11"
             fill="#cce3ff"
             points="821.6357,30.5796 827.3327,0.0036 788.9067,0.0036 783.2107,30.5796 "
             style="fill:#00070f;fill-opacity:1" />
          <polygon
             id="Fill-12"
             fill="#d7ebff"
             points="783.2102,30.5796 788.9072,0.0036 142.1802,0.0036 136.4722,30.5796 "
             style="fill:#375771;fill-opacity:1" />
          <polygon
             id="Fill-13"
             fill="#cce3ff"
             points="583.984,398.9253 626.42,201.2463 598.347,201.2463 555.91,398.9253 "
             style="fill:#00070f;fill-opacity:1" />
          <polygon
             id="Fill-14"
             fill="#cce3ff"
             points="222.6207,398.9244 180.1847,201.2454 152.1117,201.2454 194.5487,398.9244 "
             style="fill:#00070f;fill-opacity:1" />
          <polygon
             id="Fill-15"
             fill="#d7ebff"
             points="184.108,281.407 42.436,281.407 42.436,311.986 184.108,311.986 "
             style="fill:#00070f;fill-opacity:1" />
          <polygon
             id="Fill-16"
             fill="#cce3ff"
             points="28.0739,398.9244 70.5089,201.2454 42.4359,201.2454 -0.0001,398.9244 "
             style="fill:#00070f;fill-opacity:1" />
        </g>
      </g>
      <g
         id="Background-Object-/-Streetlight-/-1"
         transform="matrix(1.6163733,0,0,0.78922014,304.97359,442.4706)">
        <g
           id="Group-11"
           transform="translate(300,91)">
          <polygon
             id="polygon6591"
             fill="#d7ebff"
             points="321.369,91.911 305.369,91.911 305.369,803.774 321.369,803.774 "
             transform="matrix(1,0,0,1.0264512,0,-2.4311533)"
             style="fill:#c2d3e3;fill-opacity:1" />
          <path
             d="M 140.9729,110.028 14.3529,68.054 C 9.0639,66.301 6.1699,60.538 7.9239,55.249 l 6.316,-19.054 c 1.754,-5.289 7.516,-8.182 12.805,-6.429 l 126.62,41.974 c 5.289,1.753 8.183,7.516 6.429,12.805 l -6.316,19.054 c -1.753,5.289 -7.516,8.182 -12.805,6.429"
             id="path6593"
             fill="#ecf6ff"
             style="fill:#ffffff;fill-opacity:1" />
          <polygon
             id="polygon6595"
             fill="#cce3ff"
             points="282.704,1067.7 344.034,1067.7 344.034,831.773 282.704,831.773 "
             style="fill:#32619a;fill-opacity:1"
             transform="translate(0,16.918437)" />
          <polygon
             id="polygon6597"
             fill="#cce3ff"
             points="295.703,875.772 331.035,875.772 331.035,795.047 295.703,795.047 "
             style="fill:#32619a;fill-opacity:1"
             transform="translate(0,16.918437)" />
          <polygon
             id="polygon6599"
             fill="#cce3ff"
             points="298.668,74.7 298.668,108.928 328.072,108.928 328.072,74.7 "
             style="fill:#9cb5cf;fill-opacity:1" />
          <path
             d="m 98.0461,53.6437 c 0,0 215.323,47.609 215.323,163.326"
             id="path6601"
             stroke="#dceeff"
             stroke-width="15"
             stroke-linejoin="bevel"
             style="stroke:#c2d3e3;stroke-opacity:1" />
          <path
             d="M 155.1115,97.1554 16.3025,51.1404 C 3.8805,47.0234 -2.9135,33.4894 1.2035,21.0674 l 1.247,-3.762 c 4.118,-12.422 17.651,-19.217 30.074,-15.099 l 138.809,46.014 c 12.422,4.118 19.216,17.651 15.098,30.074 l -1.247,3.762 c -4.118,12.422 -17.651,19.217 -30.073,15.099"
             id="path6603"
             fill="#cce3ff"
             style="fill:#32619a;fill-opacity:1" />
        </g>
      </g>
    </g>
  </g>
</svg>
