<?xml version="1.0" encoding="UTF-8" standalone="no"?>
<svg
   xmlns:dc="http://purl.org/dc/elements/1.1/"
   xmlns:cc="http://creativecommons.org/ns#"
   xmlns:rdf="http://www.w3.org/1999/02/22-rdf-syntax-ns#"
   xmlns:svg="http://www.w3.org/2000/svg"
   xmlns="http://www.w3.org/2000/svg"
   xmlns:sodipodi="http://sodipodi.sourceforge.net/DTD/sodipodi-0.dtd"
   xmlns:inkscape="http://www.inkscape.org/namespaces/inkscape"
   width="356.54724"
   height="223.31165"
   viewBox="0 0 356.54725 223.31165"
   version="1.1"
   id="svg1975"
   sodipodi:docname="caixa-de-texto-Nicole.svg"
   inkscape:version="1.0.2-2 (e86c870879, 2021-01-15)">
  <metadata
     id="metadata1979">
    <rdf:RDF>
      <cc:Work
         rdf:about="">
        <dc:format>image/svg+xml</dc:format>
        <dc:type
           rdf:resource="http://purl.org/dc/dcmitype/StillImage" />
        <dc:title>caixa-de-texto-Nicole</dc:title>
      </cc:Work>
    </rdf:RDF>
  </metadata>
  <sodipodi:namedview
     pagecolor="#ffffff"
     bordercolor="#666666"
     borderopacity="1"
     objecttolerance="10"
     gridtolerance="10"
     guidetolerance="10"
     inkscape:pageopacity="0"
     inkscape:pageshadow="2"
     inkscape:window-width="1920"
     inkscape:window-height="1051"
     id="namedview1977"
     showgrid="false"
     inkscape:zoom="1.8101934"
     inkscape:cx="201.47432"
     inkscape:cy="84.923735"
     inkscape:window-x="-9"
     inkscape:window-y="-9"
     inkscape:window-maximized="1"
     inkscape:current-layer="g2807"
     inkscape:document-rotation="0" />
  <!-- Generator: Sketch 53.2 (72643) - https://sketchapp.com -->
  <title
     id="title1569">caixa-de-texto-Nicole</title>
  <desc
     id="desc1571">Created with Sketch.</desc>
  <defs
     id="defs1589">
    <path
       d="M 70.340091,114.774 69.486797,85.47188 c 0,0 35.797993,2.835171 43.455213,-1.121753 0,0 9.35932,-47.964095 -1.80349,-74.5256397 L 110.91241,8.7901899 35.370269,0 31.938477,44.246157 C 29.393846,36.781189 7.5892966,27.18712 2.0998582,37.878133 -9.7969158,61.044076 32.740399,76.642424 32.740399,76.642424 L 28.420988,115.1265"
       id="path-1" />
    <path
       d="m 360.76232,114.95821 6.96744,22.45955 c 0,0 54.40764,-22.32685 82.3947,-13.85526 l -94.31012,54.63682 -24.55243,-61.68268 z M 76.757594,28.761104 44.966103,55.283338 c 0,0 3.650093,18.805913 4.732493,36.432528 1.565472,25.514544 -1.211686,48.352214 -1.211686,48.352214 L 4.0088889e-4,45.380028 67.503074,0 Z"
       id="path-3" />
    <path
       d="m 302.7558,116.43932 28.16445,-7.61655 8.74739,28.64138 -24.14052,10.06893 z M 38.996667,0 40.677394,35.570503 16.90368,55.33023 0.11846267,26.653932 Z"
       id="path-5" />
    <path
       d="M 162.2067,109.138 C 154.43146,83.51532 148.93951,64.433814 147.13451,56.101064 139.10971,19.052947 139.12675,1.3465149 139.12675,5.9862845e-4 h 27.82136 L 271.76054,1.9954282e-4 C 271.19005,9.9100869 272.84178,36.190139 269.10867,72.577523 l 81.38322,363.037677 8.21303,-1.43218 7.14484,28.21735 -89.01737,17.7663 -10.84505,-29.81569 5.31794,-0.92733 c -11.88111,-35.76274 -37.82872,-115.15177 -63.00445,-193.68758 -3.14165,5.2319 -6.43874,10.48204 -9.89895,15.74413 C 151.48907,342.82042 104.6655,384.097 79.015079,403.48868 l 3.791294,5.42245 L 57.07532,425.28062 0.48885089,344.77307 25.454206,326.88406 l 4.209838,6.02106 c 30.451504,-28.01057 91.281866,-93.87423 127.143616,-199.69013 2.40353,-7.0882 4.13793,-15.24914 5.39904,-24.07699 z"
       id="path-7" />
    <path
       d="m 285.21654,65.731378 c -11.03642,21.670263 -49.77846,92.806122 -77.39794,81.460152 -20.679,-8.49588 -45.435,-78.929339 -45.435,-78.929339 l 40.241,-23.94871 18.082,48.40244 36.92133,-40.110506 c -1.2537,-7.948083 -2.25792,-18.337863 0.24137,-22.000557 4.255,-6.23422 25.783,-25.4419005 25.783,-25.4419005 l 3.91965,32.5440035 0.68466,-2.743481 c -6.9e-4,-0.152784 0.0361,-0.318149 0.11369,-0.496905 0.007,-0.01716 0.0152,-0.03438 0.0232,-0.05164 l 1.58483,-6.350521 c -0.66531,-0.335764 -0.93755,-0.814281 -0.64994,-1.476654 0.23345,-0.537632 0.74257,-1.126883 1.45425,-1.74623 L 296.1936,3.1595768 c 0,0 1.77568,0.7898303 4.37903,1.9732459 4.18735,-0.8634982 19.35093,9.4449213 19.58102,9.6015533 l 0.003,0.0019 c 3.088,1.994234 -4.256,34.954777 -10.221,41.077654 -4.2437,4.355996 -17.4486,8.111913 -24.71906,9.917446 z M 38.68591,212.70645 l 2.46499,4.67916 c 0,0 2.231,3.82344 4.567,10.49707 2.335,6.67263 1.365,10.75554 6.417,21.23671 5.735,11.8978 -4.523,6.99175 -8.201,1.79839 -2.871,-4.05409 -2.545,-9.53276 -6.267,-11.98828 -1.247,1.99026 -4.097,4.83548 -5.687,22.0022 -0.285,3.07883 1.111,13.06591 1.111,13.06591 0.03,2.99235 0.414,9.23253 -2.993,10.18491 -0.844,0.23661 -1.943,-0.69688 -1.943,-0.69688 0,0 0.33,3.90496 -3.151,4.68237 -1.369,0.3052 -4.088,-8.12606 -4.088,-8.12606 0,0 -0.414,4.28174 -3.014,4.75793 -0.735,0.13421 -9.413,-24.29367 -9.413,-24.29367 l 0.522,5.51745 1.152,5.65066 c 0,0 -0.093,3.04205 -2.536,3.57988 -0.97,0.21374 -2.832,-4.85933 -4.577,-10.82812 -2.714,-9.28721 -2.659,-16.26603 -1.86,-23.20609 0.964,-8.38652 0.535,-11.2039 4.268,-21.48823 0.4464173,-1.22995 1.0456033,-2.64227 1.7147859,-4.09447 C 5.1244724,197.95659 -0.64728169,146.20281 0.0601,130.3145 0.9171,111.04319 21.3351,68.262588 21.3351,68.262588 l 41.453,23.174279 -22.848,41.630393 z M 137.858,21.006187 c -24.01,-1.411671 -34.14,-16.3336363 -36.45,-20.36982394 15.234,-1.05179472 16.826,-0.89770381 37.118,1.20389734 8.23,0.8529678 14.002,2.6036393 19.592,4.1346071 1.21,4.1057775 2.93,16.3833435 -20.26,15.0313195 z"
       id="path-9" />
    <path
       d="m 189.24474,43.713803 0.14356,-0.02794 16.354,37.597188 -23.34163,13.604452 -4.87297,82.087397 h -132.99 l -2.23,-80.952407 -42.05,-31.444487 c 0,0 19.83,-39.765396 53.76,-55.5920237 10.97,-5.1197947 21.0303,-7.5357413 30.3903,-8.46028677 0.767405,-0.0757714 0.16177,-0.0543878 0.254964,0.30758117 0.05289,0.2054382 0.238098,0.5115996 0.453003,0.8589461 0.214905,0.3473465 0.214905,0.2348207 1.268432,1.7886419 1.053528,1.5538212 2.615096,3.1027027 4.969849,5.5051176 1.95312,1.9926537 4.651062,3.9436427 7.298096,5.4229027 3.013666,1.684146 5.971516,2.80876 7.869386,3.607137 1.71285,0.720544 3.15698,1.0985 4.55286,1.43004 3.94289,0.936494 7.01258,1.226545 13.27453,1.552878 0.75995,0.0396 5.1602,-0.286134 5.93408,-0.439937 1.10383,-0.219379 2.09278,-0.417581 3.34095,-0.75798 1.24816,-0.340399 4.35002,-1.787907 6.40344,-4.33769 0.87097,-1.08151 1.69834,-4.638517 1.4436,-7.2590533 -0.25474,-2.6205367 -1.39753,-2.6260993 -0.35319,-2.3400798 18.37,5.0004991 35.7307,15.3098761 45.8797,33.5920171 0.81813,1.472738 1.56571,2.891271 2.24704,4.257583 z"
       id="path-11" />
    <polygon
       id="path-13"
       points="0.8872,0.2336217 45.1692,0.2336217 45.1692,72.596502 0.8872,72.596502 " />
    <polygon
       id="path-15"
       points="0.9044,0.2336217 20.0754,0.2336217 20.0754,72.596502 0.9044,72.596502 " />
    <path
       d="m 215.391,107.69 c 0,7.61 -0.79,15.04 -2.301,22.21 -10.229,48.82 -53.529,65.48 -105.399,65.48 C 48.22,195.38 0,167.17 0,107.69 0,48.21 48.22,0 107.691,0 c 40.889,0 76.46,22.78 94.7,56.35 8.289,15.26 13,32.75 13,51.34"
       id="path-17" />
    <path
       d="M 45.835449,0.59451789 C 58.428663,11.427604 77.067654,21.501023 98.948225,28.349992 97.554877,43.174811 92.929673,68.726058 78.9772,78.0071 c -6.591,4.383 -18.594,4.923 -28.819,4.333 l -2.345,29.043 -30.393,-11.903 c 0,0 7.586,-35.298 3.524,-41.785 -5.455,-8.739 -20.05,-11.555 -20.067,-23.632 -0.006,-3.577 2.085,-9.77 9.806,-9.782 10.364,-0.015 8.887,12.401 8.887,12.401 9.533648,3.708615 19.2515,-21.695075 26.265249,-36.08758211 z"
       id="path-19" />
    <path
       d="m 237.08191,77.317553 c -0.66037,-6.467685 -0.91854,-14.205974 1.13676,-16.977453 3.771,-5.086 22.41601,-20.461 22.41601,-20.461 l 0.99397,12.830441 4.41352,-15.062541 c 0,0 4.88758,1.448532 9.61901,3.924069 4.22128,2.208625 8.22622,5.390562 9.976,6.633931 2.507,1.782 -4.78101,29.2 -9.976,34.134 -3.56707,3.386477 -14.08448,6.01248 -20.3258,7.325735 -11.92058,19.250945 -43.69073,67.350745 -61.24221,63.382465 -18.234,-4.122 -35.151,-67.86 -35.151,-67.86 l 30.755,-14.982 13.391,41.273 z M 28.095054,216.99966 l 7.485532,19.14402 c 0,0 1.137143,4.92853 1.772645,10.75335 0.634577,5.82489 0.878362,9.36818 4.735403,18.10817 2.687996,6.09033 -6.010661,4.27129 -8.477486,0.86885 -2.543294,-3.50901 -3.82965,-17.89236 -8.016872,-15.04629 -4.187221,2.84606 -5.448912,17.32219 -4.512211,30.99201 0.146804,2.14699 -1.343962,3.89977 -2.409923,4.51759 -1.729089,1.0007 -4.252249,-7.4586 -4.252249,-7.4586 0,0 -0.907521,2.97242 -3.660887,1.73103 -0.9747293,-0.43928 -3.8786973,-6.19479 -3.8786973,-6.19479 0,0 -2.2485065,-2.83638 -3.4311121,-6.00346 C 1.361587,262.82007 -0.34276652,252.44225 0.05909741,249.39287 1.0082147,242.20622 3.1438916,230.07614 5.9513058,223.35633 4.2939321,206.08918 -2.0595747,136.76465 1.4453069,123.59567 5.4566126,108.52729 13.316633,88.108088 13.316633,88.108088 l 30.160274,17.738622 -12.929544,27.6025 z M 132.33577,1.776 c 0,0 8.054,5.692 14.07,15.87 8.233,13.924 3.929,25.937 -8.738,25.957 C 124.10678,43.626 108.54278,39.01 101.98178,18.47 98.662775,8.08 95.527775,0 95.527775,0 Z"
       id="path-21" />
    <path
       d="M 32.879849,27.775952 C 29.039062,25.270922 24.346997,22.583621 22.4736,23.0206 c -2.286474,0.533331 1.955681,6.578324 4.987497,10.489958 -4.897685,1.96529 -11.390107,4.907933 -12.427097,7.057642 -0.718473,1.489413 2.087954,1.976035 5.564942,2.041823 -3.199556,1.534421 -5.991594,3.193061 -6.641042,4.540177 -0.832048,1.724859 3.063314,2.104826 7.252856,2.043773 -3.699913,1.688183 -7.166456,3.606733 -7.900356,5.128127 -1.238542,2.569045 8.009586,2.154606 13.096887,1.743177 L 25.094,61.8052 c -0.371,1.625 -1.851,2.753 -3.517,2.68 L 3.475,63.6942 c -2.154,-0.094 -3.696,-2.118 -3.215,-4.22 L 13.086,3.4162 c 0.372,-1.625 1.851,-2.752 3.516,-2.68 l 18.103,0.791 c 2.154,0.095 3.695,2.119 3.215,4.22 z"
       id="path-23" />
    <path
       d="M 102.63032,1.1280359 90.4991,0.5427 c 0,0 3.135,8.08 6.454,18.47 6.561,20.54 22.125,25.156 35.686,25.133 12.667,-0.02 16.971,-12.033 8.738,-25.957 -5.2988,-8.9646263 -12.17864,-14.4490963 -13.7437,-15.6293542 15.99464,1.081342 25.95447,3.0895049 35.1776,11.7403542 17.561,16.471 31.781,46.835 37.628,76.833 l -32.091,14.321 -11.43,44.167 -83.985,-1.28 c 0,0 0.735,-8.09 -1.076,-19.78 -2.359,-15.29 -10.875,-26.7 -10.875,-26.7 l -8.447,12.84 L 0,83.7307 C 17.199,52.3677 41.189,20.0297 57.184,9.7397 68.48381,2.4673161 78.829771,0.64192517 88.939069,0.5427 93.536252,0.4975776 98.151856,0.8103254 102.63032,1.1280359 Z"
       id="path-25" />
    <path
       d="M 30.084566,4.5740869 53.424172,4.0678492 56.008033,30.063497 58.545074,60.027111 H 0 C 7.8023033,35.158062 30.320615,31.253497 30.320615,31.253497 Z M 178.43162,9.7931148 176.03016,30.751746 c 0,0 44.67573,11.711746 61.47033,29.13159 L 155.15054,60.026721 157.33741,0 Z"
       id="path-27" />
    <path
       d="M 3.0491312,0 25.816172,7.9993361 25.687418,33.703336 0,32.513336 Z M 126.71286,7.0089049 148.84101,15.804175 148.6508,33.202561 126.033,32.371511 Z"
       id="path-29" />
    <path
       d="M 4.5868647,499.41871 C 5.6305533,466.9083 12.370635,261.54552 19.296045,139.36568 24.095061,54.680597 60.009652,8.0560074 66.749734,9.7540984e-5 H 152.32244 C 152.4785,1.081827 163.99712,82.617311 166.10498,253.22527 c 1.89229,152.78917 -0.0585,236.30376 -0.30238,246.12516 l -1.5e-4,0.005 2.73296,-0.004 0.0176,13.1534 -44.3119,0.0712 -0.0175,-13.1534 1.52787,-0.002 -9e-5,-0.001 -22.50173,-267.36959 -6.740082,-80.02262 -51.160246,347.32393 -3.31e-4,0.002 2.212755,-0.004 -0.772524,13.1534 -45.87742643,0.0741 0.77252463,-13.15243 2.9026004,-0.005 z"
       id="path-31" />
  </defs>
  <g
     id="Scene"
     stroke="none"
     stroke-width="1"
     fill="none"
     fill-rule="evenodd"
     transform="translate(-2102.2818,-29.382432)">
    <g
       id="Illustration-5"
       transform="translate(-211,-231)">
      <g
         id="Person-/-Girl-/-4"
         transform="matrix(-1,0,0,1,1570.8055,354.15563)">
        <g
           id="Girl-/-Head-/-4"
           transform="translate(96,20)">
          <g
             id="g1883"
             transform="translate(35,6)">
            <g
               id="g2864"
               transform="matrix(-1.0377699,0,0,1,-1563.1746,-31.941422)">
              <g
                 id="g2807"
                 transform="matrix(2.2118412,0,0,2.0648816,-258.58136,-492.42853)">
                <path
                   d="m 1.871946,-244.66808 c 66.170895,-27.60573 76.561136,9.93685 76.334246,41.61149 -0.2269,31.67463 -34.64624,57.10632 -76.8790908,56.80378 -42.2328492,-0.30252 -76.2843382,-26.22467 -76.0574442,-57.89931 0.226894,-31.67463 5.059929,-68.25965 74.26686996,-40.28242"
                   id="path1766"
                   fill="#cce3ff"
                   style="fill:#ffe680;stroke-width:1.382"
                   sodipodi:nodetypes="csssc"
                   transform="matrix(-1,0,0,1,-102.9634,450.33944)" />
                <polygon
                   id="polygon1874"
                   fill="#2437a8"
                   points="155.2665,133.6589 162.6665,151.5989 154.0815,151.4269 "
                   transform="matrix(-0.55003616,1.0390605,0.8031111,0.3930733,-205.50509,-13.845665)"
                   inkscape:transform-center-x="-0.26018919"
                   inkscape:transform-center-y="-2.8390266"
                   style="fill:#ffe680;fill-opacity:1" />
              </g>
            </g>
          </g>
        </g>
      </g>
    </g>
  </g>
</svg>
